<mxfile host="app.diagrams.net" modified="2024-04-29T09:15:52.594Z" agent="Mozilla/5.0 (X11; Ubuntu; Linux x86_64; rv:125.0) Gecko/20100101 Firefox/125.0" version="24.3.1" etag="KsBMq2_3LklOLY57OwYl" type="github">
  <diagram name="Page-1" id="6TbGNVZZ9EsTKm_1Y29V">
    <mxGraphModel>
      <root>
        <mxCell id="0" />
        <mxCell id="1" parent="0" />
      </root>
    </mxGraphModel>
  </diagram>
</mxfile>
